#!OML:ASF F:\VICON\USERDATA\INSTALL\rory3\rory3.ASF
:FULLY-SPECIFIED
:DEGREES
686
root -0.187279 16.324 -0.660528 -160.507 3.00756 177.627
lowerback -15.0497 -0.0307433 -0.00718675
upperback -6.51145 0.894011 -0.443721
thorax 1.56056 0.836981 -0.305411
lowerneck -13.3174 -4.25615 0.192664
upperneck 40.2889 -2.21993 1.91936
head 16.871 1.12037 0.960429
rclavicle 2.20993e-015 0
rhumerus -49.6652 18.2916 -94.3528
rradius 30.125
rwrist -14.4196
rhand 4.06005 11.8881
rfingers 7.12502
rthumb 29.473 -15.7933
lclavicle 2.20993e-015 0
lhumerus -48.1784 15.6988 69.4504
lradius 42.0837
lwrist 5.61055
lhand -3.02719 14.7034
lfingers 7.12502
lthumb 22.6879 43.3897
rfemur -24.7851 -19.8202 24.7041
rtibia 61.7503
rfoot 18.5462 -32.2272
rtoes 36.6591
lfemur -37.1846 3.3454 -35.9238
ltibia 41.6199
lfoot -37.4036 22.1963
ltoes 6.77063
687
root -0.188123 16.3173 -0.671998 -161.079 2.14743 177.232
lowerback -14.6353 -0.32905 -0.162192
upperback -6.36107 0.483927 -0.545833
thorax 1.4967 0.617549 -0.392707
lowerneck -13.4115 -4.31336 0.0603537
upperneck 40.4093 -2.27047 1.97088
head 16.9671 1.09546 1.00442
rclavicle 7.56003e-015 1.98785e-015
rhumerus -49.4549 18.2407 -94.2146
rradius 29.8836
rwrist -14.6822
rhand 4.11559 12.3768
rfingers 7.12502
rthumb 29.526 -15.2953
lclavicle 7.56003e-015 1.98785e-015
lhumerus -48.0026 15.5059 69.6517
lradius 43.4299
lwrist 6.38058
lhand -2.77045 18.3838
lfingers 7.12502
lthumb 22.9343 47.0397
rfemur -24.0241 -20.4988 24.3396
rtibia 61.7721
rfoot 17.5273 -32.8522
rtoes 38.3015
lfemur -36.339 3.2054 -36.1318
ltibia 41.5261
lfoot -37.097 21.736
ltoes 6.44529
688
root -0.190177 16.3107 -0.674699 -161.068 1.81399 177.436
lowerback -14.645 -0.394465 0.170786
upperback -6.33324 0.347462 -0.498077
thorax 1.52977 0.542988 -0.551774
lowerneck -13.7196 -4.26865 0.10878
upperneck 40.5586 -2.18304 1.87022
head 17.125 1.12649 0.970584
rclavicle -1.13525e-015 -3.97569e-016
rhumerus -49.0132 18.2625 -94.0181
rradius 29.4958
rwrist -14.8981
rhand 4.40497 12.4642
rfingers 7.12502
rthumb 29.8023 -15.1587
lclavicle -1.13525e-015 -3.97569e-016
lhumerus -47.8569 15.7305 69.509
lradius 43.5268
lwrist 6.42534
lhand -3.03663 17.9546
lfingers 7.12502
lthumb 22.6788 46.642
rfemur -24.0233 -20.4332 24.6483
rtibia 61.8066
rfoot 16.5523 -33.5682
rtoes 39.913
lfemur -36.3324 3.20737 -35.8957
ltibia 41.5641
lfoot -36.9389 21.4779
ltoes 6.89321
689
root -0.191449 16.3068 -0.685222 -161.085 1.58164 177.486
lowerback -14.6872 -0.442899 0.323319
upperback -6.31291 0.262663 -0.51255
thorax 1.57227 0.497905 -0.665824
lowerneck -13.9169 -4.19311 0.272811
upperneck 40.6406 -2.04804 1.68564
head 17.2123 1.18215 0.884124
rclavicle 1.67259e-015 7.95139e-016
rhumerus -48.831 18.3206 -93.9667
rradius 29.3928
rwrist -15.2434
rhand 4.52327 12.2993
rfingers 7.12502
rthumb 29.9152 -15.3033
lclavicle 1.67259e-015 7.95139e-016
lhumerus -47.7551 15.6329 69.5137
lradius 43.8494
lwrist 6.54517
lhand -3.26689 17.8478
lfingers 7.12502
lthumb 22.4578 46.5621
rfemur -23.9982 -20.4813 24.7165
rtibia 61.7735
rfoot 18.9224 -32.707
rtoes 37.3061
lfemur -36.2836 3.48966 -35.8945
ltibia 41.5663
lfoot -36.5509 21.2821
ltoes 6.53308
690
root -0.186551 16.3024 -0.697514 -161.071 1.62873 177.158
lowerback -14.7483 -0.46234 0.0108883
upperback -6.43986 0.311647 -0.662849
thorax 1.47313 0.537548 -0.639106
lowerneck -13.703 -4.16718 0.412762
upperneck 40.659 -1.93649 1.53362
head 17.1593 1.24527 0.815115
rclavicle -3.00662e-015 -2.78299e-015
rhumerus -48.9562 17.924 -93.7059
rradius 29.5729
rwrist -15.2629
rhand 4.5235 11.9175
rfingers 7.12502
rthumb 29.9154 -15.685
lclavicle -3.00662e-015 -2.78299e-015
lhumerus -47.8096 15.4179 69.3897
lradius 43.9309
lwrist 6.42141
lhand -3.35729 17.3172
lfingers 7.12502
lthumb 22.371 46.0419
rfemur -24.0701 -20.2948 24.3586
rtibia 61.7927
rfoot 22.0706 -31.9405
rtoes 34.2483
lfemur -36.2845 3.7124 -36.3023
ltibia 41.6051
lfoot -36.4003 21.1554
ltoes 6.02642
691
root -0.184764 16.2966 -0.711583 -161.073 1.49488 176.834
lowerback -14.8799 -0.531682 -0.250229
upperback -6.47465 0.27648 -0.804748
thorax 1.50709 0.52976 -0.64478
lowerneck -13.7576 -4.18075 0.45278
upperneck 40.8245 -1.89203 1.47153
head 17.2644 1.28134 0.797861
rclavicle 3.71479e-015 -5.56597e-015
rhumerus -48.9798 17.599 -93.4744
rradius 29.8774
rwrist -15.4318
rhand 4.6423 11.2652
rfingers 7.12502
rthumb 30.0287 -16.3168
lclavicle 3.71479e-015 -5.56597e-015
lhumerus -47.6606 15.3452 69.2889
lradius 43.8763
lwrist 6.23558
lhand -3.33994 16.7968
lfingers 7.12502
lthumb 22.3877 45.5195
rfemur -23.9922 -20.3033 24.0291
rtibia 61.7614
rfoot 18.6652 -30.7107
rtoes 35.8277
lfemur -36.2203 3.89426 -36.6837
ltibia 41.6381
lfoot -36.2213 20.938
ltoes 5.85197
692
root -0.191091 16.2926 -0.723221 -161.081 0.975762 177.055
lowerback -15.0522 -0.596774 0.200787
upperback -6.39426 0.123863 -0.793505
thorax 1.67936 0.444314 -0.910866
lowerneck -13.901 -4.17708 0.366729
upperneck 40.9171 -1.89084 1.57729
head 17.3589 1.28837 0.866132
rclavicle 1.31695e-015 -2.18663e-015
rhumerus -48.6375 17.2828 -93.1947
rradius 29.767
rwrist -15.5165
rhand 4.41103 11.3888
rfingers 7.12502
rthumb 29.808 -16.233
lclavicle 1.31695e-015 -2.18663e-015
lhumerus -47.3173 15.5165 69.1418
lradius 43.6952
lwrist 5.90175
lhand -3.14608 16.302
lfingers 7.12502
lthumb 22.5738 45.0022
rfemur -23.8097 -20.6075 24.3308
rtibia 61.6609
rfoot 23.9326 -30.371
rtoes 31.2989
lfemur -36.1469 3.94203 -36.4221
ltibia 41.6734
lfoot -35.8916 20.7909
ltoes 4.87072
693
root -0.197074 16.2912 -0.731351 -161.012 0.50784 177.303
lowerback -15.2496 -0.648336 0.690248
upperback -6.42747 0.00309662 -0.774465
thorax 1.743 0.383866 -1.18687
lowerneck -13.791 -4.20235 0.253002
upperneck 40.9946 -1.87841 1.66777
head 17.3789 1.30475 0.937094
rclavicle 1.6524e-015 -3.37934e-015
rhumerus -48.4262 17.0965 -93.0338
rradius 29.3483
rwrist -15.8682
rhand 3.70853 12.5146
rfingers 7.12502
rthumb 29.1374 -15.2255
lclavicle 1.6524e-015 -3.37934e-015
lhumerus -47.1789 15.4606 69.0889
lradius 43.6787
lwrist 5.66868
lhand -3.0925 16.407
lfingers 7.12502
lthumb 22.6252 45.101
rfemur -23.7353 -20.8082 24.6563
rtibia 61.5564
rfoot 18.64 -30.4969
rtoes 35.6965
lfemur -36.1782 4.00275 -36.1563
ltibia 41.7143
lfoot -35.7465 20.4136
ltoes 4.73148
694
root -0.194671 16.2918 -0.739182 -160.9 0.366475 177.109
lowerback -15.4009 0.473874 0.199129
upperback -6.52278 -0.344247 -0.957818
thorax 1.72148 -0.606363 -1.18368
lowerneck -13.7203 -4.24974 0.194019
upperneck 41.182 -1.86165 1.69007
head 17.4697 1.33349 0.974491
rclavicle 5.2709e-015 1.39149e-015
rhumerus -48.3073 16.8442 -92.8343
rradius 29.0301
rwrist -16.1424
rhand 3.46065 12.6111
rfingers 7.12502
rthumb 28.9006 -15.1697
lclavicle 5.2709e-015 1.39149e-015
lhumerus -47.1962 15.3941 69.0117
lradius 43.7536
lwrist 5.52116
lhand -3.04086 16.7446
lfingers 7.12502
lthumb 22.6748 45.4325
rfemur -23.8462 -20.7782 24.5327
rtibia 61.5289
rfoot 21.0851 -31.567
rtoes 35.2651
lfemur -36.2707 4.14071 -36.397
ltibia 41.7522
lfoot -35.5989 20.1286
ltoes 4.55497
